<svg width="20" height="21" viewBox="0 0 20 21" fill="none" xmlns="http://www.w3.org/2000/svg">
<path d="M9.6538 4.86873L10 5.20096L10.3462 4.86873C11.2301 4.02052 12.4287 3.5 13.75 3.5C16.4654 3.5 18.6667 5.70127 18.6667 8.41667C18.6667 10.8697 17.3277 12.8031 15.6384 14.2698C13.9486 15.7367 11.9604 16.6884 10.7983 17.1665C10.282 17.3789 9.718 17.3789 9.20171 17.1665C8.03956 16.6884 6.05136 15.7368 4.36162 14.2698C2.67229 12.8032 1.33333 10.8697 1.33333 8.41667C1.33333 5.70127 3.5346 3.5 6.25 3.5C7.57127 3.5 8.76992 4.02052 9.6538 4.86873Z" stroke="#989898"/>
</svg>
