<svg width="14" height="15" viewBox="0 0 14 15" fill="none" xmlns="http://www.w3.org/2000/svg">
<path d="M7 0.833374C6.63181 0.833374 6.33334 1.13185 6.33334 1.50004V3.50004C6.33334 3.86823 6.63181 4.16671 7 4.16671C7.36819 4.16671 7.66667 3.86823 7.66667 3.50004V1.50004C7.66667 1.13185 7.36819 0.833374 7 0.833374Z" fill="#FCFCFD"/>
<path d="M7 10.8334C6.63181 10.8334 6.33334 11.1319 6.33334 11.5V13.5C6.33334 13.8682 6.63181 14.1667 7 14.1667C7.36819 14.1667 7.66667 13.8682 7.66667 13.5V11.5C7.66667 11.1319 7.36819 10.8334 7 10.8334Z" fill="#FCFCFD"/>
<path d="M13 6.83337C13.3682 6.83337 13.6667 7.13185 13.6667 7.50004C13.6667 7.86823 13.3682 8.16671 13 8.16671H11C10.6318 8.16671 10.3333 7.86823 10.3333 7.50004C10.3333 7.13185 10.6318 6.83337 11 6.83337H13Z" fill="#FCFCFD"/>
<path d="M3.66667 7.50004C3.66667 7.13185 3.36819 6.83337 3 6.83337H1C0.631813 6.83337 0.333336 7.13185 0.333336 7.50004C0.333336 7.86823 0.631813 8.16671 1 8.16671H3C3.36819 8.16671 3.66667 7.86823 3.66667 7.50004Z" fill="#FCFCFD"/>
<path d="M10.7713 2.78606C11.0316 2.52571 11.4537 2.52571 11.7141 2.78606C11.9744 3.04641 11.9744 3.46852 11.7141 3.72887L10.2999 5.14308C10.0395 5.40343 9.61741 5.40343 9.35706 5.14308C9.09671 4.88273 9.09671 4.46062 9.35706 4.20027L10.7713 2.78606Z" fill="#FCFCFD"/>
<path d="M4.64296 9.85702C4.38261 9.59668 3.9605 9.59668 3.70015 9.85702L2.28593 11.2712C2.02558 11.5316 2.02558 11.9537 2.28593 12.214C2.54628 12.4744 2.96839 12.4744 3.22874 12.214L4.64296 10.7998C4.90331 10.5395 4.90331 10.1174 4.64296 9.85702Z" fill="#FCFCFD"/>
<path d="M11.7141 11.2713C11.9744 11.5317 11.9744 11.9538 11.7141 12.2141C11.4537 12.4745 11.0316 12.4745 10.7713 12.2141L9.35704 10.7999C9.09669 10.5396 9.09669 10.1174 9.35704 9.8571C9.61739 9.59675 10.0395 9.59675 10.2999 9.8571L11.7141 11.2713Z" fill="#FCFCFD"/>
<path d="M4.64302 5.14299C4.90337 4.88265 4.90337 4.46054 4.64302 4.20019L3.22881 2.78597C2.96846 2.52562 2.54635 2.52562 2.286 2.78597C2.02565 3.04632 2.02565 3.46843 2.286 3.72878L3.70021 5.14299C3.96056 5.40334 4.38267 5.40334 4.64302 5.14299Z" fill="#FCFCFD"/>
</svg>
